<svg id="Layer_1" xmlns="http://www.w3.org/2000/svg" width="574.9" height="191" viewBox="-266.5 220.5 574.9 191"><style>.st0{fill:#17aa1c}</style><path class="st0" d="M-77.8 220.5c-5.7.6-9.8 2.3-12.6 5.4-1.5 1.6-2.6 3.7-3.4 6-.8 2.4-1.2 5.3-1.2 8.6v32.3c-3-2.1-6.2-3.8-9.6-5.2-5-1.9-10.4-2.9-15.9-2.9-15.4 0-27.3 4.5-35.4 13.4-8.2 9-12.3 22.4-12.3 39.9 0 17.2 4.2 30.5 12.3 39.6 8.3 9.2 20.5 13.8 36.3 13.8 7.2 0 13.8-1 19.6-3.1 5.7-2 10.7-5 14.7-8.9s7.1-8.6 9.2-14c2.1-5.5 3.2-11.7 3.2-18.3V224.5c-.1-2.2-2.2-4.3-4.9-4zM-95 325.2c0 4-.5 7.6-1.6 10.7s-2.7 5.7-4.8 7.8-4.7 3.8-7.7 4.8c-3.1 1.1-6.7 1.7-10.6 1.7-4.7 0-8.5-.6-11.9-1.8-3.4-1.2-6.1-3.1-8.2-5.7-4.4-5.2-6.5-13.3-6.5-24.9 0-5.7.5-10.6 1.7-14.8 1.1-4.1 2.7-7.5 5-10.2 1.1-1.3 2.3-2.5 3.7-3.5s2.9-1.8 4.5-2.5c3.3-1.3 7.3-2 11.8-2 3.2 0 6.4.5 9.4 1.7 3 1.1 5.6 2.6 7.9 4.6 4.8 4.1 7.4 9.7 7.4 15.6l-.1 18.5zm-82.5-52.5c0-2.3-2-4.1-4.3-4.1h-.5c-5.7.6-9.8 2.3-12.6 5.4-1.5 1.6-2.6 3.7-3.4 6-.7 2.4-1.2 5.3-1.2 8.6v40.7c0 3.8-.4 7-1.3 9.7-.9 2.7-2.2 4.8-4 6.5-1.8 1.7-4.1 2.9-6.9 3.7-2.8.8-6.2 1.2-10.3 1.2s-7.5-.4-10.3-1.2c-2.9-.8-5.1-2-6.9-3.7-1.8-1.7-3.1-3.8-4-6.5-.9-2.7-1.3-5.8-1.3-9.7v-56.5c0-2.2-2-4.1-4.3-4.1h-.5c-5.7.6-9.8 2.3-12.6 5.4-1.5 1.6-2.6 3.7-3.4 6-.7 2.4-1.2 5.3-1.2 8.6V330c0 12.4 2.8 21.8 8.6 28.5 7.4 8.6 19.1 12.8 35.9 12.8 16.9 0 28.6-4.2 36-12.8 5.7-6.7 8.5-16 8.5-28.5v-57.3zm485.5-3.3c-.6-1.4-1.8-2.5-3.3-3.1-2.8-1-5.8-1.6-8.6-1.6-3.4 0-6.6.8-9.3 2.1-3 1.6-4.8 3.2-6 5.6L254 331l-25.4-58.7v-.1c-1.4-2.7-3.2-4-5.9-5.4-2.7-1.4-5.9-2.1-9.3-2.1-2.9 0-5.8.5-8.7 1.6-1.5.5-2.7 1.7-3.2 3.1-.6 1.4-.5 2.9.1 4.3l39 87.3c-1 2.3-1.9 4.3-2.7 6.3-3.2 7.1-6 12.5-9.7 16-1.7 1.7-3.7 2.9-5.9 3.7-2.3.9-5 1.3-8.2 1.3H205c-2.2 0-4.1.8-5.5 2.3-1.3 1.4-2 3.3-1.8 5.2.2 2.3.9 4.5 2.1 6.5 1.1 1.9 2.6 3.5 4.5 5 3.7 2.7 8.4 4.2 13.3 4.2 4.8 0 9.3-.8 13.4-2.2s7.9-3.6 11.4-6.5c3.4-2.8 6.6-6.3 9.5-10.5 2.8-4 5.5-8.9 7.9-14.3L308 273.7c.5-1.4.6-2.9 0-4.3z"/><path class="st0" d="M198.7 366.2v-60.3c0-11.4-3-20.7-8.9-27.6-7.8-9.1-20.3-13.7-37.2-13.7-3.5 0-6.8.2-9.9.8-3 .5-6 1.3-8.6 2.4-2.6 1-5.1 2.4-7.4 4-1.8 1.2-3.5 2.7-5.1 4.3-3.6-3.5-8.2-6.2-13.6-8.2-6-2.2-12.9-3.2-20.5-3.2-4.9 0-9.7.8-14 2.3-3.8 1.3-7.2 3.1-10.2 5.4-.6-.8-1.3-1.6-2-2.3-1.1-1-2.5-2-4-2.7-2.8-1.4-6.1-2.2-10.2-2.6-1.7-.2-3.3.3-4.6 1.4-1.2 1-1.8 2.3-1.8 3.8v83.3c0 3.1.5 5.8 1.6 8.2 1 2.1 2.5 4 4.3 5.5 2.9 2.3 6.9 3.8 12.1 4.6 3.5.5 6-1.6 6-5v-60.5c0-3.2.5-6 1.3-8.4.9-2.2 2.2-4.2 3.9-5.7 1.7-1.5 3.9-2.6 6.5-3.4 2.7-.7 5.9-1.2 9.5-1.2 4.2 0 7.5.4 10.3 1.1 2.8.7 4.9 1.9 6.5 3.5 1.7 1.6 2.9 3.7 3.7 6.4.8 2.8 1.2 6.2 1.2 10.5v44.5c0 3.1.5 5.8 1.6 8.2 1 2.1 2.5 4 4.3 5.5 2.9 2.3 6.9 3.8 12.1 4.6 3.5.5 6-1.6 6-5v-60.3c0-6.7 1.6-11.4 5-14.4 3.3-3 8.5-4.4 15.9-4.4 8.2 0 13.6 1.5 17 4.8 1.8 1.7 3 3.8 3.8 6.5.9 2.8 1.3 6.1 1.3 10.2v44.5c0 3.1.5 5.8 1.6 8.2 1 2.1 2.5 4 4.3 5.5 2.9 2.3 6.9 3.8 12.1 4.6.3 0 .7.1 1 .1 1.4 0 2.7-.5 3.5-1.3 1.1-1.6 1.6-2.9 1.6-4.5zM-15 264.7c-7.7 0-14.6 1.2-20.7 3.5-6 2.3-11.2 5.8-15.4 10.4-4.2 4.5-7.4 10.2-9.5 16.8-2.2 6.6-3.2 14.2-3.2 22.5 0 9.2 1.3 17.4 3.8 24.4 2.4 6.6 6 12.2 10.7 16.6 4.4 4.2 9.9 7.4 16.2 9.5 6 2 12.8 3 20.3 3 18.2 0 39.1-11.1 39.1-25.3 0-2-.7-4.1-1.9-5.7-1.3-1.7-3-2.7-4.9-2.7-1.1 0-2.2.3-3.3 1-1.5.9-3 2-4.6 3-5.8 4-12.2 8.5-24.4 8.5-4.2 0-8.1-.5-11.5-1.6-3.4-1-6.3-2.7-8.8-4.8-2.5-2.1-4.4-4.8-5.8-7.8-1.4-3-2.2-6.5-2.6-10.4h59.3c3 0 5.4-.6 7.3-1.8 1.7-1 3-2.6 3.8-4.5 1.6-3.5 1.6-7.8 1.6-10.6 0-4.8-.8-17-8.5-27.5-7.8-11-20.3-16.5-37-16.5zm22.8 40.9c-.5.5-1.2.8-1.9.8h-47.2c.5-3.5 1.5-6.5 2.8-9.2 1.4-2.7 3.2-5 5.4-6.8 2.2-1.8 4.8-3.1 7.8-4s6.4-1.3 10.2-1.3c7.2 0 12.5 1.5 16.3 4.4 3.9 3 6.2 7.7 7.1 14.2.2.8 0 1.4-.5 1.9z"/></svg>